<svg width="41" height="49" viewBox="0 0 41 49" fill="none" xmlns="http://www.w3.org/2000/svg">
<path d="M0.789307 43.2534L4.28853 36.5831C8.34026 39.3624 14.602 41.4005 20.6796 41.4005C28.5989 41.4005 31.7298 38.9918 31.7298 34.9155C31.7298 24.3542 2.07849 33.4332 2.07849 14.7193C2.07849 6.19616 9.62945 0.637573 21.6005 0.637573C27.6781 0.637573 34.6765 2.30515 38.7282 4.89915L35.0448 11.5695C30.8089 8.79016 26.2047 7.86373 21.6005 7.86373C14.2337 7.86373 10.5503 10.643 10.5503 14.3487C10.5503 25.4659 40.2016 16.3869 40.2016 34.7302C40.2016 43.2534 32.4665 48.6267 19.9429 48.6267C12.392 48.812 4.65687 46.4032 0.789307 43.2534Z" fill="#FF6060"/>
</svg>
